<?xml version="1.0" encoding="UTF-8" standalone="no"?>
<!DOCTYPE svg PUBLIC "-//W3C//DTD SVG 1.1//EN" "http://www.w3.org/Graphics/SVG/1.1/DTD/svg11.dtd">
<svg width="100%" height="100%" viewBox="0 0 16 16" version="1.1" xmlns="http://www.w3.org/2000/svg" xmlns:xlink="http://www.w3.org/1999/xlink" xml:space="preserve"  style="fill-rule:evenodd;clip-rule:evenodd;stroke-linejoin:round;stroke-miterlimit:2;">
    <g transform="matrix(1,0,0,1,-1410.68,-316.884)">
        <g id="comparison_equal" transform="matrix(0.5,0,0,0.5,1410.68,316.884)">
            <rect x="0" y="0" width="32" height="32" style="fill:none;"/>
            <g transform="matrix(2,0,0,2,-2777.35,-633.768)">
                <path d="M1404.67,324.884C1404.67,320.469 1401.09,316.884 1396.67,316.884C1392.26,316.884 1388.67,320.469 1388.67,324.884C1388.67,329.3 1392.26,332.884 1396.67,332.884C1401.09,332.884 1404.67,329.3 1404.67,324.884Z" style="fill:rgb(218,218,218);"/>
            </g>
            <g transform="matrix(2,0,0,2,-2647.6,-382)">
                <path d="M1335.8,200L1327.8,200C1327.52,200 1327.3,200.224 1327.3,200.5C1327.3,200.776 1327.52,201 1327.8,201L1335.8,201C1336.08,201 1336.3,200.776 1336.3,200.5C1336.3,200.224 1336.08,200 1335.8,200ZM1335.8,197L1327.8,197C1327.52,197 1327.3,197.224 1327.3,197.5C1327.3,197.776 1327.52,198 1327.8,198L1335.8,198C1336.08,198 1336.3,197.776 1336.3,197.5C1336.3,197.224 1336.08,197 1335.8,197Z"/>
            </g>
        </g>
    </g>
</svg>
