<?xml version="1.0" encoding="UTF-8" standalone="no"?>
<!DOCTYPE svg PUBLIC "-//W3C//DTD SVG 1.1//EN" "http://www.w3.org/Graphics/SVG/1.1/DTD/svg11.dtd">
<svg width="100%" height="100%" viewBox="0 0 16 16" version="1.1" xmlns="http://www.w3.org/2000/svg" xmlns:xlink="http://www.w3.org/1999/xlink" xml:space="preserve" style="fill-rule:evenodd;clip-rule:evenodd;stroke-linejoin:round;stroke-miterlimit:2;">
    <g transform="matrix(1,0,0,1,-1388.68,-316.884)">
        <g id="comparison_diff" transform="matrix(0.5,0,0,0.5,1388.68,316.884)">
            <rect x="0" y="0" width="32" height="32" style="fill:none;"/>
            <g transform="matrix(-2,0,0,2,2809.35,-633.768)">
                <path d="M1404.67,324.884C1404.67,320.469 1401.09,316.884 1396.67,316.884C1392.26,316.884 1388.67,320.469 1388.67,324.884C1388.67,329.3 1392.26,332.884 1396.67,332.884C1401.09,332.884 1404.67,329.3 1404.67,324.884Z" style="fill:rgb(255,198,83);"/>
            </g>
            <g transform="matrix(2,0,0,2,-2733.35,-380)">
                <path d="M1371,202.377L1379,194.377C1379.21,194.169 1379.21,193.831 1379,193.623C1378.79,193.415 1378.45,193.415 1378.25,193.623L1370.25,201.623C1370.04,201.831 1370.04,202.169 1370.25,202.377C1370.45,202.585 1370.79,202.585 1371,202.377ZM1371.87,199L1370.67,199C1370.4,199 1370.17,199.224 1370.17,199.5C1370.17,199.776 1370.4,200 1370.67,200L1370.87,200L1371.87,199ZM1375.38,199L1374.38,200L1378.67,200C1378.95,200 1379.17,199.776 1379.17,199.5C1379.17,199.224 1378.95,199 1378.67,199L1375.38,199ZM1374.87,196L1370.67,196C1370.4,196 1370.17,196.224 1370.17,196.5C1370.17,196.776 1370.4,197 1370.67,197L1373.87,197L1374.87,196ZM1378.38,196L1377.38,197L1378.67,197C1378.95,197 1379.17,196.776 1379.17,196.5C1379.17,196.224 1378.95,196 1378.67,196L1378.38,196Z"/>
            </g>
        </g>
    </g>
</svg>
